<svg width="150" height="150" viewBox="0 0 150 150" fill="none" xmlns="http://www.w3.org/2000/svg">
<path d="M133.817 64.5057C133.491 64.2473 130.453 61.9532 124.046 61.9532C122.354 61.9606 120.665 62.1057 118.997 62.3872C117.757 53.8874 110.73 49.7433 110.415 49.5574L108.694 48.5652L107.563 50.1981C106.146 52.3915 105.111 54.8095 104.504 57.3493C103.357 62.2013 104.054 66.7585 106.519 70.6545C103.543 72.3131 98.7683 72.7214 97.8021 72.7575H18.7563C16.6917 72.7603 15.0163 74.4288 15.005 76.4933C14.9128 83.4182 16.0861 90.3017 18.467 96.805C21.1899 103.946 25.241 109.206 30.5114 112.425C36.4174 116.042 46.0126 118.109 56.8893 118.109C61.8029 118.124 66.7072 117.68 71.538 116.781C78.2533 115.548 84.7151 113.201 90.6561 109.836C95.5514 107.001 99.9571 103.395 103.703 99.156C109.966 92.0667 113.696 84.1714 116.471 77.1547H117.577C124.433 77.1547 128.65 74.4108 130.975 72.1116C132.52 70.6451 133.726 68.8587 134.509 66.8774L135 65.441L133.817 64.5057Z" fill="#2496ED"/>
<path d="M26.0832 70.4427H36.6757C37.1866 70.4427 37.6006 70.0286 37.6006 69.5179V60.0826C37.6034 59.5718 37.1916 59.1554 36.6809 59.1526C36.6792 59.1526 36.6774 59.1526 36.6757 59.1526H26.0832C25.5724 59.1526 25.1584 59.5667 25.1584 60.0774V60.0826V69.5177C25.1584 70.0286 25.5724 70.4427 26.0832 70.4427V70.4427Z" fill="#2496ED"/>
<path d="M40.6803 70.4427H51.2728C51.7837 70.4427 52.1977 70.0286 52.1977 69.5179V60.0826C52.2005 59.5718 51.7887 59.1554 51.2779 59.1526C51.2762 59.1526 51.2743 59.1526 51.2727 59.1526H40.6802C40.1664 59.1526 39.7501 59.5689 39.7501 60.0826V69.5177C39.7531 70.0294 40.1686 70.4427 40.6803 70.4427" fill="#2496ED"/>
<path d="M55.4994 70.4427H66.0918C66.6027 70.4427 67.0167 70.0286 67.0167 69.5179V60.0826C67.0195 59.5718 66.6077 59.1554 66.0969 59.1526C66.0952 59.1526 66.0933 59.1526 66.0917 59.1526H55.4992C54.9883 59.1526 54.5743 59.5667 54.5743 60.0774V60.0826V69.5177C54.5745 70.0286 54.9886 70.4427 55.4994 70.4427V70.4427Z" fill="#2496ED"/>
<path d="M70.1428 70.4427H80.7353C81.247 70.4427 81.6625 70.0296 81.6653 69.5179V60.0826C81.6653 59.5689 81.249 59.1526 80.7353 59.1526H70.1428C69.6319 59.1526 69.218 59.5667 69.218 60.0774V60.0826V69.5177C69.218 70.0286 69.6321 70.4427 70.1428 70.4427V70.4427Z" fill="#2496ED"/>
<path d="M40.6802 56.869H51.2727C51.7842 56.8662 52.1975 56.4505 52.1975 55.939V46.5039C52.1975 45.9931 51.7834 45.5791 51.2727 45.5791H40.6802C40.1686 45.5791 39.753 45.9922 39.7501 46.5039V55.939C39.753 56.4516 40.1676 56.8662 40.6802 56.869Z" fill="#2496ED"/>
<path d="M55.4992 56.869H66.0917C66.6032 56.8662 67.0165 56.4505 67.0165 55.939V46.5039C67.0165 45.9931 66.6024 45.5791 66.0917 45.5791H55.4992C54.9883 45.5791 54.5743 45.9932 54.5743 46.5039V55.939C54.5743 56.4505 54.9876 56.8662 55.4992 56.869Z" fill="#2496ED"/>
<path d="M70.1428 56.869H80.7353C81.2478 56.8662 81.6625 56.4516 81.6653 55.939V46.5039C81.6625 45.9922 81.247 45.5791 80.7353 45.5791H70.1428C69.6319 45.5791 69.218 45.9932 69.218 46.5039V55.939C69.218 56.4505 69.6313 56.8662 70.1428 56.869Z" fill="#2496ED"/>
<path d="M70.1428 43.2901H80.7353C81.247 43.2901 81.6625 42.8768 81.6653 42.3653V32.9248C81.6625 32.4131 81.247 32 80.7353 32H70.1428C69.6319 32 69.218 32.414 69.218 32.9248V42.3651C69.218 42.876 69.6321 43.2901 70.1428 43.2901Z" fill="#2496ED"/>
<path d="M84.9153 70.4427H95.5078C96.0195 70.4427 96.435 70.0296 96.4379 69.5179V60.0826C96.4379 59.5689 96.0215 59.1526 95.5078 59.1526H84.9153C84.4046 59.1526 83.9905 59.5667 83.9905 60.0774V60.0826V69.5177C83.9905 70.0286 84.4046 70.4427 84.9153 70.4427" fill="#2496ED"/>
</svg>
