<svg width="100" height="100" viewBox="0 0 100 100" fill="none" xmlns="http://www.w3.org/2000/svg">
<rect width="100" height="100" rx="16" fill="#F6F3F3"/>
<path d="M70.1376 65.2014H80.0688V41.356L68.8798 30.167L61.8572 37.1896L70.1376 45.47V65.2014ZM80.095 70.1801H65.6305H45.4537L37.1733 61.8998L40.6846 58.3885L47.5237 65.2276H61.5952L47.7334 51.3397L51.2709 47.8022L65.1327 61.6639V47.5925L58.3197 40.7796L61.8048 37.2945L44.5889 20H27.6089H10L19.905 29.905V29.9312H19.9574H40.4487L47.7072 37.1896L37.0947 47.8022L29.8362 40.5437V34.9099H19.905V44.6577L37.0947 61.8474L30.0983 68.8438L41.2873 80.0328H58.2673H90L80.095 70.1801Z" fill="#231F20"/>
</svg>
