<svg width="65" height="64" viewBox="0 0 65 64" fill="none" xmlns="http://www.w3.org/2000/svg">
<path d="M61.6151 34.5601C62.7368 49.3366 50.601 62.3056 34.509 63.5272C18.417 64.7489 4.46245 53.7604 3.3407 38.9839C2.21895 24.2074 14.3547 11.2384 30.4468 10.0169C46.539 8.79538 60.4933 19.7836 61.6151 34.5601Z" fill="#FFA52E"/>
<path d="M32.01 12.231L32.013 11.7431L32.0145 11.6208C32.016 11.5778 32.0181 11.5316 32.0109 11.4961L31.9801 11.2511L31.947 10.9817L31.886 10.6595C31.8531 10.4386 31.7792 10.2015 31.7187 9.95837C31.6931 9.83687 31.6409 9.71337 31.5992 9.589L31.5336 9.40187C31.5131 9.33788 31.4887 9.27522 31.4605 9.21425L31.2991 8.83875C31.2454 8.71362 31.1709 8.59238 31.1089 8.46988L31.0126 8.28725L30.901 8.11075C30.8255 7.99425 30.7617 7.87462 30.6806 7.76387L30.4389 7.43762C30.4021 7.38275 30.3557 7.33337 30.3115 7.28375L30.181 7.136L30.0569 6.98962C30.0139 6.94275 29.9661 6.9 29.9221 6.85562C29.832 6.7685 29.7481 6.68075 29.6619 6.5995L29.3929 6.3785C29.3489 6.34362 29.3101 6.305 29.2646 6.2745L29.1307 6.18475C29.0432 6.12625 28.9661 6.06387 28.8896 6.00637C28.8055 5.95787 28.7271 5.90987 28.6581 5.858C28.519 5.75412 28.3869 5.67212 28.2732 5.59575C28.2175 5.55612 28.1687 5.51462 28.1224 5.47787C28.0719 5.44762 28.0285 5.41587 27.989 5.38737C27.909 5.332 27.8519 5.27887 27.8126 5.24237L27.7541 5.18325L27.2051 4.62862C26.4037 3.819 26.4104 2.51313 27.22 1.71175C27.9505 0.98875 29.0851 0.924 29.8886 1.51275L30.0097 1.60137L30.3556 1.844C30.4299 1.89625 30.5116 1.95475 30.6024 2.01537L30.88 2.23362L31.1939 2.48388C31.3052 2.571 31.411 2.67437 31.5272 2.77662L31.8872 3.099L32.2464 3.469L32.4352 3.662C32.4987 3.7275 32.5541 3.80037 32.615 3.87087L32.979 4.30988C33.0942 4.46463 33.205 4.62675 33.3199 4.78988C33.3761 4.872 33.4359 4.95325 33.4899 5.03825L33.6444 5.29912L33.7991 5.5635C33.8509 5.65212 33.904 5.74062 33.9467 5.834L34.2172 6.39225C34.3054 6.58 34.3735 6.77575 34.4511 6.96787L34.5639 7.257L34.6576 7.551C34.7167 7.7475 34.7862 7.94062 34.833 8.13725L34.9676 8.72225C34.9915 8.81825 35.0081 8.91488 35.0214 9.0115L35.0641 9.298C35.0897 9.48763 35.1245 9.6725 35.1316 9.85625C35.1555 10.2226 35.1865 10.5706 35.175 10.8966L35.1694 11.3646C35.1567 11.5274 35.1397 11.6868 35.1241 11.8344L35.0754 12.2504C35.0715 12.2799 35.067 12.3199 35.0635 12.339L35.053 12.4023L35.0334 12.52L34.9554 12.9886C34.8209 13.7974 34.0561 14.3439 33.2475 14.2094C32.5177 14.088 32.0015 13.4534 32.0065 12.7365L32.01 12.231Z" fill="#75432E"/>
<path d="M32.6011 13.8555L32.6864 13.7735C32.7422 13.7219 32.8254 13.6426 32.9308 13.5526L33.1078 13.3991L33.3172 13.2286C33.3543 13.1975 33.3956 13.1669 33.4332 13.1321L33.5299 13.023C33.5973 12.9459 33.6624 12.8669 33.7252 12.786C33.7907 12.6986 33.8527 12.6238 33.9143 12.5381L33.9599 12.4744L34.0151 12.4058L34.1271 12.2634C34.2012 12.1716 34.2747 12.0781 34.3474 11.9829L34.4553 11.8429L34.5659 11.6906C34.7117 11.4899 34.8541 11.2868 34.9932 11.0814L35.4118 10.4576C35.6852 10.0498 35.9788 9.62388 36.2923 9.23913C36.3738 9.13313 36.4581 9.04062 36.5412 8.945C36.6207 8.8495 36.7148 8.754 36.8054 8.65925C36.8512 8.61275 36.8954 8.56188 36.9422 8.51888L37.0854 8.38425C37.1352 8.33787 37.1842 8.289 37.2346 8.24438L37.3876 8.1155L37.5457 7.98138L37.7127 7.855C37.8242 7.77013 37.9334 7.68688 38.0584 7.60663C38.1802 7.5265 38.2999 7.43988 38.4257 7.36763C38.5556 7.28757 38.6878 7.21137 38.8222 7.13912C38.9603 7.06501 39.0999 6.99349 39.2407 6.92462C39.3863 6.85531 39.5334 6.78917 39.6818 6.72625C39.8352 6.66013 39.9928 6.60338 40.1484 6.54138L40.3876 6.448C40.4693 6.41775 40.5526 6.39138 40.6351 6.36288C40.8008 6.30788 40.9629 6.24925 41.1383 6.19513L41.6599 6.04438C41.8374 5.99125 42.0234 5.95413 42.2038 5.90863L42.4766 5.84363L42.7609 5.78937C42.9519 5.75562 43.1339 5.7125 43.3294 5.68825L43.9138 5.6075L44.5089 5.5525C44.7096 5.53625 44.9044 5.5295 45.1086 5.52112C45.3108 5.51075 45.5153 5.51538 45.7151 5.51538C45.8151 5.51613 45.9136 5.5155 46.0172 5.5195L46.3236 5.53662C46.5273 5.5485 46.7218 5.55775 46.9261 5.58325C47.1301 5.60763 47.3286 5.62625 47.5266 5.65987C47.9166 5.7145 48.3196 5.80538 48.6883 5.89325C48.8781 5.94488 49.0666 5.99825 49.2478 6.05388C49.4313 6.11475 49.6044 6.1685 49.7803 6.23438L50.2907 6.44212C50.4559 6.517 50.6118 6.58537 50.7688 6.66587C50.919 6.7454 51.0683 6.82653 51.2167 6.90925C51.3604 6.99537 51.4947 7.07138 51.6279 7.1605C51.7602 7.25138 51.8857 7.33925 52.0048 7.42537C52.1238 7.51537 52.2363 7.60125 52.3424 7.686C52.4487 7.7755 52.5498 7.86588 52.6437 7.95363L52.9069 8.2135C52.9884 8.29738 53.0646 8.37013 53.1339 8.45063C53.2034 8.53075 53.2672 8.61125 53.3254 8.68325C53.4424 8.82475 53.5354 8.9625 53.6098 9.0675C53.7574 9.2835 53.8273 9.41263 53.8273 9.41263L53.8588 9.471C53.9441 9.62886 53.9717 9.81147 53.937 9.98749C53.9023 10.1635 53.8074 10.3219 53.6686 10.4356C53.6686 10.4356 53.5721 10.5145 53.4037 10.6427C53.2348 10.7747 52.9989 10.9396 52.7186 11.1646L52.5021 11.3374C52.4277 11.3965 52.3521 11.4486 52.2736 11.5135L52.0328 11.7175L51.7846 11.9211C51.7013 11.9845 51.6139 12.0658 51.5277 12.14L51.2652 12.363C51.1777 12.432 51.0862 12.5169 50.9958 12.5971L50.7217 12.833C50.6298 12.909 50.5339 12.9965 50.4399 13.0794L50.1537 13.3235C50.0559 13.4105 49.9567 13.4919 49.8581 13.5774L49.5556 13.83C49.4536 13.9198 49.3484 13.9991 49.2444 14.0835C49.1407 14.1693 49.0302 14.2579 48.9218 14.3416L48.7584 14.47L48.5899 14.5968C48.4759 14.6826 48.3629 14.7729 48.2462 14.8525C47.7768 15.1998 47.2809 15.5283 46.7363 15.8574L46.5343 15.98L46.3237 16.0996C46.1819 16.1783 46.0433 16.2631 45.8982 16.3369L45.4547 16.5701C45.3076 16.6448 45.1506 16.7177 44.9963 16.793C44.3791 17.0826 43.7217 17.3705 43.0218 17.5886C42.3298 17.8119 41.5798 17.9851 40.8248 18.0921C40.0578 18.2001 39.2822 18.2335 38.5087 18.192C37.7289 18.1419 36.9809 18.0235 36.2782 17.8123C35.9343 17.7179 35.5979 17.5889 35.2881 17.4544C35.1352 17.3913 34.9857 17.3205 34.8401 17.2423C34.6954 17.169 34.5578 17.0867 34.4271 17.012C33.8978 16.6959 33.4961 16.3479 33.1416 16.0141C33.0638 15.9362 32.9875 15.8569 32.9124 15.7764C32.8779 15.7386 32.8446 15.7044 32.8138 15.6671C32.7878 15.6296 32.7676 15.5928 32.7453 15.5576L32.6258 15.3621L32.5284 15.1908C32.4698 15.0901 32.4272 15.0035 32.3981 14.9468L32.3539 14.8606C32.2778 14.7118 32.2515 14.5424 32.2791 14.3775C32.3067 14.2126 32.3865 14.061 32.5069 13.945L32.6011 13.8555ZM21.7904 6.2135L21.8453 6.20475C21.8814 6.199 21.9359 6.1895 22.0026 6.1825C22.0703 6.17225 22.1538 6.16825 22.2448 6.15613C22.3346 6.136 22.4271 6.12087 22.5288 6.09662C22.6243 6.07237 22.7493 6.05888 22.8701 6.03438L23.2576 5.97437C23.5273 5.93587 23.8262 5.89988 24.1391 5.87988C24.4732 5.85731 24.8084 5.85452 25.1428 5.8715C25.4919 5.88975 25.8623 5.93313 26.2372 6.00688C26.6168 6.07888 27.0012 6.18575 27.3922 6.32613C27.7832 6.4665 28.1729 6.64412 28.5633 6.85075C28.9613 7.05959 29.3438 7.29679 29.7078 7.5605C30.0815 7.82766 30.433 8.12467 30.7587 8.44862C31.0842 8.77775 31.3806 9.12125 31.6332 9.49037C31.8871 9.85062 32.0944 10.2359 32.2529 10.6021C32.3309 10.7884 32.3949 10.9751 32.4513 11.1476L32.5206 11.4128L32.5732 11.6643C32.5876 11.7468 32.5992 11.8279 32.6099 11.9046L32.6307 12.1299C32.6453 12.2706 32.6389 12.4106 32.6354 12.5301C32.6327 12.7675 32.5904 12.9632 32.5643 13.0904C32.5498 13.1564 32.5329 13.2219 32.5136 13.2867C32.498 13.3358 32.473 13.3813 32.4399 13.4207C32.4067 13.4601 32.3662 13.4925 32.3205 13.5162C32.2748 13.5399 32.2249 13.5544 32.1736 13.5588C32.1224 13.5632 32.0707 13.5574 32.0217 13.5419L32.0129 13.539L31.9827 13.5285L31.8009 13.4653C31.6862 13.4249 31.5328 13.3644 31.3376 13.3039L31.1881 13.257C31.1376 13.2406 31.0886 13.2224 31.0309 13.2076L30.8589 13.1615C30.8023 13.1447 30.7468 13.127 30.6871 13.1111L30.4982 13.0673L30.3108 13.0203L29.9134 12.9307L29.0648 12.7463C28.7757 12.6789 28.4651 12.6089 28.1554 12.5235C27.8378 12.4418 27.5191 12.3435 27.1868 12.232C26.8541 12.123 26.5191 11.9947 26.1758 11.8529C25.8366 11.7094 25.4883 11.5548 25.1517 11.3708C24.8147 11.1876 24.4798 10.9825 24.1643 10.7506C23.8455 10.5212 23.5432 10.2695 23.2597 9.99763C22.9838 9.73339 22.7278 9.44911 22.4938 9.14713C22.2662 8.851 22.0734 8.554 21.9184 8.26475C21.8469 8.12702 21.7794 7.98721 21.7161 7.8455L21.6381 7.64712C21.6152 7.58512 21.5901 7.52562 21.5684 7.4595C21.5263 7.33225 21.4903 7.225 21.4683 7.12475C21.4499 7.02938 21.4442 6.94975 21.4376 6.88062C21.4303 6.81412 21.4283 6.75887 21.4262 6.72237L21.4232 6.667C21.4116 6.443 21.5738 6.24888 21.7904 6.2135Z" fill="#179967"/>
<path d="M12.8078 33.3503C12.3649 33.3503 11.9148 33.2676 11.4784 33.0931C9.64088 32.3584 8.74688 30.273 9.48175 28.4356C10.8334 25.0555 13.3439 22.098 16.5506 20.1079C18.2321 19.0645 20.4411 19.5817 21.4846 21.2631C22.5281 22.9445 22.0109 25.1536 20.3294 26.1971C18.413 27.3864 16.9236 29.1264 16.1359 31.0965C15.5756 32.4975 14.2299 33.3503 12.8078 33.3503Z" fill="#FFC392"/>
</svg>
